<mxfile host="app.diagrams.net" agent="Mozilla/5.0 (Windows NT 10.0; Win64; x64; rv:138.0) Gecko/20100101 Firefox/138.0" version="27.0.4">
  <diagram name="Страница — 1" id="0z_HeKPPRqJAuMn_t7p7">
    <mxGraphModel dx="788" dy="560" grid="1" gridSize="10" guides="1" tooltips="1" connect="1" arrows="1" fold="1" page="1" pageScale="1" pageWidth="827" pageHeight="1169" math="0" shadow="0">
      <root>
        <mxCell id="0" />
        <mxCell id="1" parent="0" />
        <mxCell id="ZhxzeuRZ4r9QFSET6puF-1" value="" style="swimlane;html=1;childLayout=stackLayout;resizeParent=1;resizeParentMax=0;horizontal=0;startSize=20;horizontalStack=0;" parent="1" vertex="1">
          <mxGeometry x="10" y="160" width="800" height="1030" as="geometry" />
        </mxCell>
        <mxCell id="ZhxzeuRZ4r9QFSET6puF-2" value="" style="swimlane;html=1;startSize=20;horizontal=0;" parent="ZhxzeuRZ4r9QFSET6puF-1" vertex="1">
          <mxGeometry x="20" width="780" height="120" as="geometry" />
        </mxCell>
        <mxCell id="ZhxzeuRZ4r9QFSET6puF-3" style="edgeStyle=orthogonalEdgeStyle;rounded=0;orthogonalLoop=1;jettySize=auto;html=1;exitX=1;exitY=0.5;exitDx=0;exitDy=0;entryX=0;entryY=0.5;entryDx=0;entryDy=0;" parent="ZhxzeuRZ4r9QFSET6puF-2" source="ZhxzeuRZ4r9QFSET6puF-4" target="ZhxzeuRZ4r9QFSET6puF-6" edge="1">
          <mxGeometry relative="1" as="geometry" />
        </mxCell>
        <mxCell id="ZhxzeuRZ4r9QFSET6puF-4" value="1." style="ellipse;whiteSpace=wrap;html=1;" parent="ZhxzeuRZ4r9QFSET6puF-2" vertex="1">
          <mxGeometry x="40" y="40" width="40" height="40" as="geometry" />
        </mxCell>
        <mxCell id="ZhxzeuRZ4r9QFSET6puF-5" style="edgeStyle=orthogonalEdgeStyle;rounded=0;orthogonalLoop=1;jettySize=auto;html=1;exitX=1;exitY=0.5;exitDx=0;exitDy=0;" parent="ZhxzeuRZ4r9QFSET6puF-2" source="ZhxzeuRZ4r9QFSET6puF-6" target="ZhxzeuRZ4r9QFSET6puF-7" edge="1">
          <mxGeometry relative="1" as="geometry" />
        </mxCell>
        <mxCell id="ZhxzeuRZ4r9QFSET6puF-6" value="&lt;div&gt;Кнопка подключения Metamask&lt;/div&gt;" style="rounded=0;whiteSpace=wrap;html=1;fontFamily=Helvetica;fontSize=12;fontColor=#000000;align=center;" parent="ZhxzeuRZ4r9QFSET6puF-2" vertex="1">
          <mxGeometry x="120" y="30" width="80" height="60" as="geometry" />
        </mxCell>
        <mxCell id="ZhxzeuRZ4r9QFSET6puF-7" value="Балансы токенов на Metamask" style="rounded=0;whiteSpace=wrap;html=1;fontFamily=Helvetica;fontSize=12;fontColor=#000000;align=center;" parent="ZhxzeuRZ4r9QFSET6puF-2" vertex="1">
          <mxGeometry x="240" y="30" width="80" height="60" as="geometry" />
        </mxCell>
        <mxCell id="ZhxzeuRZ4r9QFSET6puF-8" value="Пулы ликвидности" style="rounded=0;whiteSpace=wrap;html=1;fontFamily=Helvetica;fontSize=12;fontColor=#000000;align=center;" parent="ZhxzeuRZ4r9QFSET6puF-2" vertex="1">
          <mxGeometry x="490" y="30" width="80" height="60" as="geometry" />
        </mxCell>
        <mxCell id="ZhxzeuRZ4r9QFSET6puF-9" value="" style="verticalLabelPosition=bottom;verticalAlign=top;html=1;shape=mxgraph.basic.tick" parent="ZhxzeuRZ4r9QFSET6puF-2" vertex="1">
          <mxGeometry x="320" y="5" width="30" height="25" as="geometry" />
        </mxCell>
        <mxCell id="ZhxzeuRZ4r9QFSET6puF-10" value="" style="verticalLabelPosition=bottom;verticalAlign=top;html=1;shape=mxgraph.basic.tick" parent="ZhxzeuRZ4r9QFSET6puF-2" vertex="1">
          <mxGeometry x="170" width="30" height="25" as="geometry" />
        </mxCell>
        <mxCell id="ZhxzeuRZ4r9QFSET6puF-11" value="" style="swimlane;html=1;startSize=20;horizontal=0;" parent="ZhxzeuRZ4r9QFSET6puF-1" vertex="1">
          <mxGeometry x="20" y="120" width="780" height="120" as="geometry" />
        </mxCell>
        <mxCell id="ZhxzeuRZ4r9QFSET6puF-12" style="edgeStyle=orthogonalEdgeStyle;rounded=0;orthogonalLoop=1;jettySize=auto;html=1;exitX=1;exitY=0.5;exitDx=0;exitDy=0;entryX=0;entryY=0.5;entryDx=0;entryDy=0;" parent="ZhxzeuRZ4r9QFSET6puF-11" source="ZhxzeuRZ4r9QFSET6puF-13" target="ZhxzeuRZ4r9QFSET6puF-14" edge="1">
          <mxGeometry relative="1" as="geometry" />
        </mxCell>
        <mxCell id="ZhxzeuRZ4r9QFSET6puF-13" value="&lt;div&gt;Создание тестовой сети на&amp;nbsp; HardHat&lt;/div&gt;" style="rounded=0;whiteSpace=wrap;html=1;fontFamily=Helvetica;fontSize=12;fontColor=#000000;align=center;" parent="ZhxzeuRZ4r9QFSET6puF-11" vertex="1">
          <mxGeometry x="234" y="30" width="80" height="60" as="geometry" />
        </mxCell>
        <mxCell id="ZhxzeuRZ4r9QFSET6puF-14" value="&lt;div&gt;Создание собственного тестового токена на localhost&lt;/div&gt;" style="rounded=0;whiteSpace=wrap;html=1;fontFamily=Helvetica;fontSize=12;fontColor=#000000;align=center;" parent="ZhxzeuRZ4r9QFSET6puF-11" vertex="1">
          <mxGeometry x="340" y="20" width="80" height="80" as="geometry" />
        </mxCell>
        <mxCell id="ZhxzeuRZ4r9QFSET6puF-15" value="" style="verticalLabelPosition=bottom;verticalAlign=top;html=1;shape=mxgraph.basic.tick" parent="ZhxzeuRZ4r9QFSET6puF-11" vertex="1">
          <mxGeometry x="284" width="30" height="25" as="geometry" />
        </mxCell>
        <mxCell id="ZhxzeuRZ4r9QFSET6puF-16" value="" style="swimlane;html=1;startSize=20;horizontal=0;" parent="ZhxzeuRZ4r9QFSET6puF-1" vertex="1">
          <mxGeometry x="20" y="240" width="780" height="120" as="geometry">
            <mxRectangle x="20" y="240" width="670" height="40" as="alternateBounds" />
          </mxGeometry>
        </mxCell>
        <mxCell id="ZhxzeuRZ4r9QFSET6puF-17" style="edgeStyle=orthogonalEdgeStyle;rounded=0;orthogonalLoop=1;jettySize=auto;html=1;exitX=1;exitY=0.5;exitDx=0;exitDy=0;entryX=0;entryY=0.5;entryDx=0;entryDy=0;" parent="ZhxzeuRZ4r9QFSET6puF-16" source="ZhxzeuRZ4r9QFSET6puF-18" target="ZhxzeuRZ4r9QFSET6puF-20" edge="1">
          <mxGeometry relative="1" as="geometry" />
        </mxCell>
        <mxCell id="ZhxzeuRZ4r9QFSET6puF-18" value="&lt;div&gt;Создание шаблона сайта на V0.dev&lt;/div&gt;" style="rounded=0;whiteSpace=wrap;html=1;fontFamily=Helvetica;fontSize=12;fontColor=#000000;align=center;" parent="ZhxzeuRZ4r9QFSET6puF-16" vertex="1">
          <mxGeometry x="110" y="30" width="80" height="60" as="geometry" />
        </mxCell>
        <mxCell id="ZhxzeuRZ4r9QFSET6puF-19" style="edgeStyle=orthogonalEdgeStyle;rounded=0;orthogonalLoop=1;jettySize=auto;html=1;exitX=1;exitY=0.5;exitDx=0;exitDy=0;entryX=0;entryY=0.5;entryDx=0;entryDy=0;" parent="ZhxzeuRZ4r9QFSET6puF-16" source="ZhxzeuRZ4r9QFSET6puF-20" target="ZhxzeuRZ4r9QFSET6puF-21" edge="1">
          <mxGeometry relative="1" as="geometry" />
        </mxCell>
        <mxCell id="ZhxzeuRZ4r9QFSET6puF-20" value="&lt;div&gt;Создание скрипта по генерации промптов для V0.dev&lt;/div&gt;" style="rounded=0;whiteSpace=wrap;html=1;fontFamily=Helvetica;fontSize=12;fontColor=#000000;align=center;" parent="ZhxzeuRZ4r9QFSET6puF-16" vertex="1">
          <mxGeometry x="234" y="30" width="80" height="80" as="geometry" />
        </mxCell>
        <mxCell id="ZhxzeuRZ4r9QFSET6puF-21" value="запуск ./Repo/1_Docs_/Celi.html" style="shape=document;whiteSpace=wrap;html=1;boundedLbl=1;" parent="ZhxzeuRZ4r9QFSET6puF-16" vertex="1">
          <mxGeometry x="370" y="30" width="120" height="80" as="geometry" />
        </mxCell>
        <mxCell id="ZhxzeuRZ4r9QFSET6puF-22" value="Страница с меню всех .md проекта" style="shape=cube;whiteSpace=wrap;html=1;boundedLbl=1;backgroundOutline=1;darkOpacity=0.05;darkOpacity2=0.1;" parent="ZhxzeuRZ4r9QFSET6puF-16" vertex="1">
          <mxGeometry x="530" y="20" width="120" height="80" as="geometry" />
        </mxCell>
        <mxCell id="ZhxzeuRZ4r9QFSET6puF-23" style="edgeStyle=orthogonalEdgeStyle;rounded=0;orthogonalLoop=1;jettySize=auto;html=1;exitX=0.5;exitY=1;exitDx=0;exitDy=0;entryX=0.568;entryY=0.045;entryDx=0;entryDy=0;entryPerimeter=0;" parent="ZhxzeuRZ4r9QFSET6puF-1" source="ZhxzeuRZ4r9QFSET6puF-7" target="ZhxzeuRZ4r9QFSET6puF-13" edge="1">
          <mxGeometry relative="1" as="geometry" />
        </mxCell>
        <mxCell id="ZhxzeuRZ4r9QFSET6puF-24" style="edgeStyle=orthogonalEdgeStyle;rounded=0;orthogonalLoop=1;jettySize=auto;html=1;exitX=0.5;exitY=1;exitDx=0;exitDy=0;entryX=0;entryY=0.5;entryDx=0;entryDy=0;" parent="ZhxzeuRZ4r9QFSET6puF-1" source="ZhxzeuRZ4r9QFSET6puF-4" target="ZhxzeuRZ4r9QFSET6puF-18" edge="1">
          <mxGeometry relative="1" as="geometry" />
        </mxCell>
        <mxCell id="ZhxzeuRZ4r9QFSET6puF-25" value="" style="swimlane;html=1;startSize=20;horizontal=0;" parent="ZhxzeuRZ4r9QFSET6puF-1" vertex="1">
          <mxGeometry x="20" y="360" width="780" height="130" as="geometry">
            <mxRectangle x="20" y="240" width="670" height="40" as="alternateBounds" />
          </mxGeometry>
        </mxCell>
        <mxCell id="ZhxzeuRZ4r9QFSET6puF-26" value="" style="swimlane;html=1;startSize=20;horizontal=0;" parent="ZhxzeuRZ4r9QFSET6puF-1" vertex="1">
          <mxGeometry x="20" y="490" width="780" height="190" as="geometry">
            <mxRectangle x="20" y="240" width="670" height="40" as="alternateBounds" />
          </mxGeometry>
        </mxCell>
        <mxCell id="ZhxzeuRZ4r9QFSET6puF-27" style="edgeStyle=orthogonalEdgeStyle;rounded=0;orthogonalLoop=1;jettySize=auto;html=1;exitX=1;exitY=0.5;exitDx=0;exitDy=0;entryX=0;entryY=0.5;entryDx=0;entryDy=0;" parent="ZhxzeuRZ4r9QFSET6puF-26" source="ZhxzeuRZ4r9QFSET6puF-28" target="ZhxzeuRZ4r9QFSET6puF-31" edge="1">
          <mxGeometry relative="1" as="geometry" />
        </mxCell>
        <mxCell id="ZhxzeuRZ4r9QFSET6puF-28" value="Создание интернет-магазина под WP&lt;br&gt;&quot;Око техники&quot;" style="rounded=0;whiteSpace=wrap;html=1;" parent="ZhxzeuRZ4r9QFSET6puF-26" vertex="1">
          <mxGeometry x="60" y="35" width="120" height="60" as="geometry" />
        </mxCell>
        <mxCell id="ZhxzeuRZ4r9QFSET6puF-29" style="edgeStyle=orthogonalEdgeStyle;rounded=0;orthogonalLoop=1;jettySize=auto;html=1;exitX=1;exitY=0.5;exitDx=0;exitDy=0;entryX=0;entryY=0.5;entryDx=0;entryDy=0;" parent="ZhxzeuRZ4r9QFSET6puF-26" source="ZhxzeuRZ4r9QFSET6puF-31" target="ZhxzeuRZ4r9QFSET6puF-32" edge="1">
          <mxGeometry relative="1" as="geometry" />
        </mxCell>
        <mxCell id="ZhxzeuRZ4r9QFSET6puF-30" style="edgeStyle=orthogonalEdgeStyle;rounded=0;orthogonalLoop=1;jettySize=auto;html=1;exitX=1;exitY=0.5;exitDx=0;exitDy=0;entryX=0;entryY=0.5;entryDx=0;entryDy=0;" parent="ZhxzeuRZ4r9QFSET6puF-26" source="ZhxzeuRZ4r9QFSET6puF-31" target="ZhxzeuRZ4r9QFSET6puF-33" edge="1">
          <mxGeometry relative="1" as="geometry" />
        </mxCell>
        <mxCell id="ZhxzeuRZ4r9QFSET6puF-31" value="Установлен WP под WSL" style="shape=parallelogram;perimeter=parallelogramPerimeter;whiteSpace=wrap;html=1;fixedSize=1;" parent="ZhxzeuRZ4r9QFSET6puF-26" vertex="1">
          <mxGeometry x="230" y="35" width="180" height="65" as="geometry" />
        </mxCell>
        <mxCell id="ZhxzeuRZ4r9QFSET6puF-32" value="Безопасность:&lt;br&gt;Перенесены конфиги на уровень выше " style="shape=process;whiteSpace=wrap;html=1;backgroundOutline=1;" parent="ZhxzeuRZ4r9QFSET6puF-26" vertex="1">
          <mxGeometry x="470" y="10" width="120" height="60" as="geometry" />
        </mxCell>
        <mxCell id="ZhxzeuRZ4r9QFSET6puF-33" value="&lt;div&gt;не отключена страница входа wp-login и /wp-admin&lt;/div&gt;&lt;div&gt;неудачный плагин&lt;/div&gt;" style="shape=process;whiteSpace=wrap;html=1;backgroundOutline=1;" parent="ZhxzeuRZ4r9QFSET6puF-26" vertex="1">
          <mxGeometry x="470" y="80" width="120" height="90" as="geometry" />
        </mxCell>
        <mxCell id="ZhxzeuRZ4r9QFSET6puF-34" value="" style="verticalLabelPosition=bottom;verticalAlign=top;html=1;shape=mxgraph.basic.tick" parent="ZhxzeuRZ4r9QFSET6puF-26" vertex="1">
          <mxGeometry x="150" y="110" width="30" height="25" as="geometry" />
        </mxCell>
        <mxCell id="ZhxzeuRZ4r9QFSET6puF-35" value="" style="verticalLabelPosition=bottom;verticalAlign=top;html=1;shape=mxgraph.basic.tick" parent="ZhxzeuRZ4r9QFSET6puF-26" vertex="1">
          <mxGeometry x="370" y="27.5" width="30" height="25" as="geometry" />
        </mxCell>
        <mxCell id="ZhxzeuRZ4r9QFSET6puF-36" style="edgeStyle=orthogonalEdgeStyle;rounded=0;orthogonalLoop=1;jettySize=auto;html=1;exitX=0.5;exitY=1;exitDx=0;exitDy=0;entryX=0.5;entryY=0;entryDx=0;entryDy=0;" parent="ZhxzeuRZ4r9QFSET6puF-1" source="ZhxzeuRZ4r9QFSET6puF-28" target="ZhxzeuRZ4r9QFSET6puF-39" edge="1">
          <mxGeometry relative="1" as="geometry" />
        </mxCell>
        <mxCell id="ZhxzeuRZ4r9QFSET6puF-37" value="" style="swimlane;html=1;startSize=20;horizontal=0;" parent="ZhxzeuRZ4r9QFSET6puF-1" vertex="1">
          <mxGeometry x="20" y="680" width="780" height="100" as="geometry">
            <mxRectangle x="20" y="240" width="670" height="40" as="alternateBounds" />
          </mxGeometry>
        </mxCell>
        <mxCell id="ZhxzeuRZ4r9QFSET6puF-38" value="" style="group" parent="ZhxzeuRZ4r9QFSET6puF-37" vertex="1" connectable="0">
          <mxGeometry x="60" y="35" width="190" height="60" as="geometry" />
        </mxCell>
        <mxCell id="ZhxzeuRZ4r9QFSET6puF-39" value="Подключение к Cursor AI CodeWP" style="rounded=0;whiteSpace=wrap;html=1;" parent="ZhxzeuRZ4r9QFSET6puF-38" vertex="1">
          <mxGeometry width="190" height="60" as="geometry" />
        </mxCell>
        <mxCell id="ZhxzeuRZ4r9QFSET6puF-40" value="" style="verticalLabelPosition=bottom;verticalAlign=top;html=1;shape=mxgraph.basic.tick" parent="ZhxzeuRZ4r9QFSET6puF-38" vertex="1">
          <mxGeometry x="150" y="25" width="30" height="25" as="geometry" />
        </mxCell>
        <mxCell id="ZhxzeuRZ4r9QFSET6puF-41" value="" style="swimlane;html=1;startSize=20;horizontal=0;" parent="ZhxzeuRZ4r9QFSET6puF-1" vertex="1">
          <mxGeometry x="20" y="780" width="780" height="120" as="geometry">
            <mxRectangle x="20" y="240" width="670" height="40" as="alternateBounds" />
          </mxGeometry>
        </mxCell>
        <mxCell id="ZhxzeuRZ4r9QFSET6puF-42" value="" style="group" parent="ZhxzeuRZ4r9QFSET6puF-41" vertex="1" connectable="0">
          <mxGeometry x="60" y="35" width="190" height="60" as="geometry" />
        </mxCell>
        <mxCell id="ZhxzeuRZ4r9QFSET6puF-43" value="Создание регистрации на сайте через Mysql" style="rounded=0;whiteSpace=wrap;html=1;" parent="ZhxzeuRZ4r9QFSET6puF-42" vertex="1">
          <mxGeometry width="190" height="60" as="geometry" />
        </mxCell>
        <mxCell id="ZhxzeuRZ4r9QFSET6puF-44" value="Регистарация на хостинге с BD Mariadb alwaysdata.com" style="shape=step;perimeter=stepPerimeter;whiteSpace=wrap;html=1;fixedSize=1;" parent="ZhxzeuRZ4r9QFSET6puF-41" vertex="1">
          <mxGeometry x="290" y="25" width="120" height="80" as="geometry" />
        </mxCell>
        <mxCell id="ZhxzeuRZ4r9QFSET6puF-45" style="edgeStyle=orthogonalEdgeStyle;rounded=0;orthogonalLoop=1;jettySize=auto;html=1;exitX=1;exitY=0.5;exitDx=0;exitDy=0;fontFamily=Helvetica;fontSize=12;fontColor=default;entryX=0;entryY=0.5;entryDx=0;entryDy=0;" parent="ZhxzeuRZ4r9QFSET6puF-41" source="ZhxzeuRZ4r9QFSET6puF-43" target="ZhxzeuRZ4r9QFSET6puF-44" edge="1">
          <mxGeometry relative="1" as="geometry">
            <mxPoint x="300" y="40" as="targetPoint" />
          </mxGeometry>
        </mxCell>
        <mxCell id="ZhxzeuRZ4r9QFSET6puF-46" style="edgeStyle=orthogonalEdgeStyle;rounded=0;orthogonalLoop=1;jettySize=auto;html=1;exitX=0.5;exitY=1;exitDx=0;exitDy=0;entryX=0;entryY=0.5;entryDx=0;entryDy=0;" parent="ZhxzeuRZ4r9QFSET6puF-1" source="ZhxzeuRZ4r9QFSET6puF-4" target="ZhxzeuRZ4r9QFSET6puF-43" edge="1">
          <mxGeometry relative="1" as="geometry" />
        </mxCell>
        <mxCell id="w4PvkZMudOKL_4UMtfQu-1" value="" style="swimlane;html=1;startSize=20;horizontal=0;" vertex="1" parent="ZhxzeuRZ4r9QFSET6puF-1">
          <mxGeometry x="20" y="900" width="780" height="130" as="geometry">
            <mxRectangle x="20" y="240" width="670" height="40" as="alternateBounds" />
          </mxGeometry>
        </mxCell>
        <mxCell id="w4PvkZMudOKL_4UMtfQu-2" value="" style="group" vertex="1" connectable="0" parent="w4PvkZMudOKL_4UMtfQu-1">
          <mxGeometry x="60" y="35" width="190" height="60" as="geometry" />
        </mxCell>
        <mxCell id="w4PvkZMudOKL_4UMtfQu-3" value="Перенос на локальлный сервер под WSL: для emkan.free.nf и forum.emkan.free.nf" style="rounded=0;whiteSpace=wrap;html=1;" vertex="1" parent="w4PvkZMudOKL_4UMtfQu-2">
          <mxGeometry width="190" height="60" as="geometry" />
        </mxCell>
        <mxCell id="w4PvkZMudOKL_4UMtfQu-66" style="edgeStyle=orthogonalEdgeStyle;rounded=0;orthogonalLoop=1;jettySize=auto;html=1;exitX=1;exitY=0.5;exitDx=0;exitDy=0;entryX=0;entryY=0.5;entryDx=0;entryDy=0;" edge="1" parent="w4PvkZMudOKL_4UMtfQu-1" source="w4PvkZMudOKL_4UMtfQu-4" target="w4PvkZMudOKL_4UMtfQu-6">
          <mxGeometry relative="1" as="geometry" />
        </mxCell>
        <mxCell id="w4PvkZMudOKL_4UMtfQu-4" value="Создание репозиториев на GitHub" style="shape=step;perimeter=stepPerimeter;whiteSpace=wrap;html=1;fixedSize=1;" vertex="1" parent="w4PvkZMudOKL_4UMtfQu-1">
          <mxGeometry x="290" y="25" width="110" height="85" as="geometry" />
        </mxCell>
        <mxCell id="w4PvkZMudOKL_4UMtfQu-5" style="edgeStyle=orthogonalEdgeStyle;rounded=0;orthogonalLoop=1;jettySize=auto;html=1;exitX=1;exitY=0.5;exitDx=0;exitDy=0;fontFamily=Helvetica;fontSize=12;fontColor=default;entryX=0;entryY=0.5;entryDx=0;entryDy=0;" edge="1" parent="w4PvkZMudOKL_4UMtfQu-1" source="w4PvkZMudOKL_4UMtfQu-3" target="w4PvkZMudOKL_4UMtfQu-4">
          <mxGeometry relative="1" as="geometry">
            <mxPoint x="300" y="40" as="targetPoint" />
          </mxGeometry>
        </mxCell>
        <mxCell id="w4PvkZMudOKL_4UMtfQu-67" style="edgeStyle=orthogonalEdgeStyle;rounded=0;orthogonalLoop=1;jettySize=auto;html=1;exitX=1;exitY=0.5;exitDx=0;exitDy=0;entryX=0;entryY=0.5;entryDx=0;entryDy=0;" edge="1" parent="w4PvkZMudOKL_4UMtfQu-1" source="w4PvkZMudOKL_4UMtfQu-6" target="w4PvkZMudOKL_4UMtfQu-7">
          <mxGeometry relative="1" as="geometry" />
        </mxCell>
        <mxCell id="w4PvkZMudOKL_4UMtfQu-68" style="edgeStyle=orthogonalEdgeStyle;rounded=0;orthogonalLoop=1;jettySize=auto;html=1;exitX=1;exitY=0.5;exitDx=0;exitDy=0;entryX=0;entryY=0.5;entryDx=0;entryDy=0;" edge="1" parent="w4PvkZMudOKL_4UMtfQu-1" source="w4PvkZMudOKL_4UMtfQu-6" target="w4PvkZMudOKL_4UMtfQu-61">
          <mxGeometry relative="1" as="geometry" />
        </mxCell>
        <mxCell id="w4PvkZMudOKL_4UMtfQu-6" value="Проверка и настройка среды для серверов удаленных и локальных" style="shape=step;perimeter=stepPerimeter;whiteSpace=wrap;html=1;fixedSize=1;" vertex="1" parent="w4PvkZMudOKL_4UMtfQu-1">
          <mxGeometry x="440" y="25" width="120" height="80" as="geometry" />
        </mxCell>
        <mxCell id="w4PvkZMudOKL_4UMtfQu-7" value="Установка Docker Desktop на Windows" style="shape=parallelogram;perimeter=parallelogramPerimeter;whiteSpace=wrap;html=1;fixedSize=1;" vertex="1" parent="w4PvkZMudOKL_4UMtfQu-1">
          <mxGeometry x="610" y="10" width="140" height="50" as="geometry" />
        </mxCell>
        <mxCell id="w4PvkZMudOKL_4UMtfQu-61" value="Установка Docker под WSL" style="shape=parallelogram;perimeter=parallelogramPerimeter;whiteSpace=wrap;html=1;fixedSize=1;" vertex="1" parent="w4PvkZMudOKL_4UMtfQu-1">
          <mxGeometry x="600" y="70" width="120" height="50" as="geometry" />
        </mxCell>
        <mxCell id="w4PvkZMudOKL_4UMtfQu-62" value="" style="verticalLabelPosition=bottom;verticalAlign=top;html=1;shape=mxgraph.basic.tick" vertex="1" parent="w4PvkZMudOKL_4UMtfQu-1">
          <mxGeometry x="240" y="10" width="30" height="25" as="geometry" />
        </mxCell>
        <mxCell id="w4PvkZMudOKL_4UMtfQu-63" value="" style="verticalLabelPosition=bottom;verticalAlign=top;html=1;shape=mxgraph.basic.tick" vertex="1" parent="w4PvkZMudOKL_4UMtfQu-1">
          <mxGeometry x="369" width="30" height="25" as="geometry" />
        </mxCell>
        <mxCell id="w4PvkZMudOKL_4UMtfQu-64" value="" style="verticalLabelPosition=bottom;verticalAlign=top;html=1;shape=mxgraph.basic.tick" vertex="1" parent="w4PvkZMudOKL_4UMtfQu-1">
          <mxGeometry x="530" width="30" height="25" as="geometry" />
        </mxCell>
        <mxCell id="w4PvkZMudOKL_4UMtfQu-65" value="" style="verticalLabelPosition=bottom;verticalAlign=top;html=1;shape=mxgraph.basic.tick" vertex="1" parent="w4PvkZMudOKL_4UMtfQu-1">
          <mxGeometry x="750" y="-10" width="30" height="25" as="geometry" />
        </mxCell>
        <mxCell id="w4PvkZMudOKL_4UMtfQu-70" value="" style="shape=orEllipse;perimeter=ellipsePerimeter;whiteSpace=wrap;html=1;backgroundOutline=1;" vertex="1" parent="w4PvkZMudOKL_4UMtfQu-1">
          <mxGeometry x="720" y="70" width="30" height="30" as="geometry" />
        </mxCell>
      </root>
    </mxGraphModel>
  </diagram>
</mxfile>
